<?xml version="1.0" encoding="UTF-8" standalone="no"?>
<!-- Created with Inkscape (http://www.inkscape.org/) -->

<svg
   xmlns:dc="http://purl.org/dc/elements/1.1/"
   xmlns:cc="http://creativecommons.org/ns#"
   xmlns:rdf="http://www.w3.org/1999/02/22-rdf-syntax-ns#"
   xmlns:svg="http://www.w3.org/2000/svg"
   xmlns="http://www.w3.org/2000/svg"
   xmlns:sodipodi="http://sodipodi.sourceforge.net/DTD/sodipodi-0.dtd"
   xmlns:inkscape="http://www.inkscape.org/namespaces/inkscape"
   width="64"
   height="64"
   viewBox="0 0 64 64"
   version="1.1"
   id="SVGRoot"
   sodipodi:docname="logo.svg"
   inkscape:version="0.92.3 (2405546, 2018-03-11)">
  <sodipodi:namedview
     id="base"
     pagecolor="#ffffff"
     bordercolor="#666666"
     borderopacity="1.0"
     inkscape:pageopacity="0.0"
     inkscape:pageshadow="2"
     inkscape:zoom="4"
     inkscape:cx="102.83256"
     inkscape:cy="16.069335"
     inkscape:document-units="px"
     inkscape:current-layer="layer1"
     showgrid="true"
     inkscape:window-width="1920"
     inkscape:window-height="1000"
     inkscape:window-x="-11"
     inkscape:window-y="-11"
     inkscape:window-maximized="1"
     inkscape:grid-bbox="true">
    <inkscape:grid
       type="xygrid"
       id="grid1396" />
  </sodipodi:namedview>
  <defs
     id="defs815" />
  <metadata
     id="metadata818">
    <rdf:RDF>
      <cc:Work
         rdf:about="">
        <dc:format>image/svg+xml</dc:format>
        <dc:type
           rdf:resource="http://purl.org/dc/dcmitype/StillImage" />
        <dc:title></dc:title>
      </cc:Work>
    </rdf:RDF>
  </metadata>
  <g
     id="layer1"
     inkscape:groupmode="layer"
     inkscape:label="Layer 1"
     transform="translate(0,48)">
    <path
       style="opacity:1;fill:#ffffff;fill-opacity:1;stroke-width:0.12500001"
       d="m 24.925781,-48.652344 c -12.281259,11.390018 -21,26.249226 -21,35.199219 0,15.912506 12.524988,28.800781 28,28.800781 15.47501,0 27.999999,-12.888275 27.999999,-28.800781 0,-6.650002 -6.49998,-20.386735 -15.562499,-28.792969 -2.587479,2.40625 -4.936708,4.936703 -7.011719,7.480469 -3.4125,-4.684997 -7.650762,-9.449209 -12.425781,-13.886719 z M 19,-31 h 27 c 2.4,0 4.5,1.573595 4.5,3.375 V 1.625 C 50.5,3.426408 48.401877,5 46,5 H 19 C 16.598127,5 14.5,3.425 14.5,1.625 v -29.25 C 14.5,-29.426405 16.598127,-31 19,-31 Z m 3,4.5 c -0.825,0 -1.5,0.506251 -1.5,1.125 v 4.5 c 0,0.618751 0.675,1.125 1.5,1.125 h 21 c 0.825,0 1.5,-0.506249 1.5,-1.125 v -4.5 c 0,-0.618749 -0.675,-1.125 -1.5,-1.125 z m 0,9 c -0.825,0 -1.5,0.506251 -1.5,1.125 v 2.25 c 0,0.618749 0.675,1.125 1.5,1.125 h 3 c 0.825,0 1.5,-0.506251 1.5,-1.125 v -2.25 c 0,-0.618749 -0.675,-1.125 -1.5,-1.125 z m 9,0 c -0.825,0 -1.5,0.506251 -1.5,1.125 v 2.25 c 0,0.618749 0.675,1.125 1.5,1.125 h 3 c 0.825,0 1.5,-0.506251 1.5,-1.125 v -2.25 c 0,-0.618749 -0.675,-1.125 -1.5,-1.125 z m 9,0 c -0.825,0 -1.5,0.506251 -1.5,1.125 v 2.25 c 0,0.618751 0.675,1.125 1.5,1.125 h 3 c 0.825,0 1.5,-0.506249 1.5,-1.125 v -2.25 c 0,-0.618749 -0.675,-1.125 -1.5,-1.125 z m -18,6.75 c -0.825,0 -1.5,0.506249 -1.5,1.125 v 2.25 c 0,0.61875 0.675,1.125 1.5,1.125 h 3 c 0.825,0 1.5,-0.50625 1.5,-1.125 v -2.25 c 0,-0.618751 -0.675,-1.125 -1.5,-1.125 z m 9,0 c -0.825,0 -1.5,0.506249 -1.5,1.125 v 2.25 c 0,0.61875 0.675,1.125 1.5,1.125 h 3 c 0.825094,0 1.5,-0.506179 1.5,-1.125 v -2.25 c 0,-0.618751 -0.675,-1.125 -1.5,-1.125 z m 9,0 c -0.825,0 -1.5,0.506249 -1.5,1.125 v 2.25 c 0,0.618821 0.675093,1.125 1.5,1.125 h 3 c 0.825094,0 1.5,-0.506179 1.5,-1.125 v -2.25 c 0,-0.618751 -0.675,-1.125 -1.5,-1.125 z M 22,-4 c -0.825,0 -1.5,0.50625 -1.5,1.125 v 2.25 c 0,0.61875 0.675,1.125 1.5,1.125 h 12 c 0.825094,0 1.5,-0.50618 1.5,-1.125 v -2.25 C 35.5,-3.493821 34.825094,-4 34,-4 Z m 18,0 c -0.824907,0 -1.5,0.506179 -1.5,1.125 v 2.25 c 0,0.618821 0.675093,1.125 1.5,1.125 h 3 c 0.825094,0 1.5,-0.50618 1.5,-1.125 v -2.25 C 44.5,-3.493821 43.825094,-4 43,-4 Z"
       id="path1374"
       inkscape:connector-curvature="0"
       inkscape:export-xdpi="54.857143"
       inkscape:export-ydpi="54.857143" />
  </g>
</svg>
